/* XPM */
static char *wall[] = {
/* columns rows colors chars-per-pixel */
"64 64 45 1 ",
"  c None",
". c #212125",
"X c #2E2E2F",
"o c #3C3B39",
"O c #4A4843",
"+ c #58554D",
"@ c #666257",
"# c #746F61",
"$ c #827C6B",
"% c #C38000",
"& c #C48000",
"* c #C68200",
"= c #CD9018",
"- c #D49E31",
"; c #FFCC00",
": c #FFCE0C",
"> c #FFD018",
", c #FFD325",
"< c #FFD531",
"1 c #FFD83D",
"2 c #908A75",
"3 c #9D977F",
"4 c #DBAC4A",
"5 c #DEB356",
"6 c #E2BA63",
"7 c #FFDA4A",
"8 c #FFDD56",
"9 c #E6C16F",
"0 c #2CE418",
"q c #E9C87B",
"w c #FFE16F",
"e c #FFE47B",
"r c #EDCF88",
"t c #F0D694",
"y c #FFE688",
"u c #FFE994",
"i c #D5CBA7",
"p c #E3D8B1",
"a c #FFEBA0",
"s c #F7E4AD",
"d c #FFEEAD",
"f c #F1E5BB",
"g c #FBEBB9",
"h c #FFF0B9",
"j c #E41818",
/* pixels */
"      *%%&*********************************************%%&      ",
"    %******************************************************%    ",
"  %**=9tttjjjjjjjjjjjjjjjjjjjjjjjjjjjjjjjjjjjjjjjjjjjjttr5=**%  ",
"  **9jjjjjjjjjjjjjjjjjjjjjjjjjjjjjjjjjjjjjjjjjjjjjjjjjjjjjj6**  ",
" %*4jju7<<0000000000000000000000000000000000000000;;;;<<7ujj9*% ",
" *=jj0000000000000000000000000000000000000000000000000;;;;7jj-* ",
"**qju000000000000000000000000000000000000000000000000;;;;;;ejq**",
"%*gj1;;;;<<<0000000000000000000000000000000000000000<<<;;;;,js**",
"**jj,;;;yjjjd00000000000000000000000000000000;;;;;;yjjjd;;;;jj**",
"**jj:;;7jjjjj700000000000000000000000000000000;;;;7jjjjj7;;;jj**",
"**jj;;;wjjjjj000000000000000000000000000000000;;;;wjjjjj0;;;jj**",
"**jj;;;7jjjjj700000000000000000000000000000000;;;;7jjjjj7;;;jj**",
"**jj;;;;ujjjg:00000000000000000000000000000000;;;;;ajjjg:;;;jj**",
"**jj;;;;:8w8>00000000000000000000000000000000;;;;;;:808>;;;;jj**",
"**jj00000000000000000000000000000000000000000000000000000000jj**",
"**jj00000000000000000000000000000000000000000000000000000000jj**",
"**jj00000000000000000000000000000000000000000000000000000000jj**",
"**jj00000000000000000000000000000000000000000000000000000000jj**",
"**jj00000000000000000000000000000000000000000000000000000000jj**",
"**jj00000000000000000000000000000000000000000000000000000000jj**",
"**jj00000000000000000000000000000000000000000000000000000000jj**",
"**jj00000000000000000000000000000000000000000000000000000000jj**",
"**jj000000000000000000000000,euuuue,000000000000000000000000jj**",
"**jj0000000000000000;;;;;;:yjjjjjjjju,0000000000000000;;;;;;jj**",
"**jj0000000000000000;;;;;;yjf3++++3fjd:0000000000000000;;;;;jj**",
"**jj0000000000000000;;;;;wjpX......Xpjy0000000000000000;;;;;jj**",
"**jj0000000000000000;;;;>jfO........Ofj<0000000000000000;;;;jj**",
"**jj0000000000000000;;;;ej2..........2je0000000000000000;;;;jj**",
"**jj0000000000000000;;;;djo..........ojh0000000000000000;;;;jj**",
"**jj0000000000000000;;;;jj............jj0000000000000000;;;;jj**",
"**jj0000000000000000;;;;jj............jj0000000000000000;;;;jj**",
"**jj0000000000000000;;;;djo..........ojd0000000000000000;;;;jj**",
"**jj0000000000000000;;;;yj2..........2jy0000000000000000;;;;jj**",
"**jj0000000000000000;;;;<jfX........Xfj<0000000000000000;;;;jj**",
"**jj0000000000000000;;;;;yjio......oijy0000000000000000;;;;;jj**",
"**jj0000000000000000;;;;;:ajf......fjd:0000000000000000;;;;;jj**",
"**jj0000000000000000;;;;;;:jj......jj>0000000000000000;;;;;;jj**",
"**jj0000000000000000;;;;;;;jj......jj0000000000000000;;;;;;;jj**",
"**jj0000000000000000;;;;;;;jj......jj0000000000000000;;;;;;;jj**",
"**jj0000000000000000;;;;;;;aj+....$ja0000000000000000;;;;;;;jj**",
"**jj0000000000000000;;;;;;;0jf@..#jj10000000000000000;;;;;;;jj**",
"**jj000000000000000000000000yjjjjjje000000000000000000000000jj**",
"**jj000000000000000000000000;7djjd7000000000000000000000000;jj**",
"**jj00000000000000000000000000000000000000000000000000000000jj**",
"**jj00000000000000000000000000000000000000000000000000000000jj**",
"**jj00000000000000000000000000000000000000000000000000000000jj**",
"**jj00000000000000000000000000000000000000000000000000000000jj**",
"**jj00000000000000000000000000000000000000000000000000000000jj**",
"**jj00000000000000000000000000000000000000000000000000000000jj**",
"**jj00000000000000000000000000000000000000000000000000000000jj**",
"**jj;;;;;<<<0000000000000000000000000000000000000000<<<;;;;;jj**",
"**jj;;;;yjjjd00000000000000000000000000000000;;;;;;yjjjd;;;;jj**",
"**jj;;;7jjjjj700000000000000000000000000000000;;;;7jjjjj7;;;jj**",
"**jj;;;0jjjjj000000000000000000000000000000000;;;;wjjjjjw;;;jj**",
"**jj;;;7jjjjj700000000000000000000000000000000;;;;7jjjjj7;;;jj**",
"**jj:;;;ajjjg:00000000000000000000000000000000;;;;;ajjjd:;;:jj**",
"**tj1;;;:8w8:00000000000000000000000000000000;;;;;;:808>;;;1jt*&",
"%*9jy000000000000000000000000000000000000000000000000;;;;;;yj9*%",
" *=jj7000000000000000000000000000000000000000000000000;;;;7jj=* ",
" %*9jjw>000000000000000000000000000000000000000000000000>wjj9*% ",
"  **qjjjjjjjjjjjjjjjjjjjjjjjjjjjjjjjjjjjjjjjjjjjjjjjjjjjjjjq**  ",
"  %**-rjjjjjjjjjjjjjjjjjjjjjjjjjjjjjjjjjjjjjjjjjjjjjjjjjjr-**%  ",
"    ********************************************************    ",
"     *%**************************************************%*     "
};